# xmcd
#
# Track frame offsets:
#  182
#  20065
#  47950
#  69370
#  86455
#  102130
#  126920
#  138340
#  155887
#  167472
#
# Disc length: 2535 seconds
#
# Revision: 0
# Processed by: cddbd v1.5.1PL2 Copyright (c) Steve Scherf et al.
# Submitted via: Collectorz.com_Music_Collector 6.9
#
DISCID=8309e50a
DTITLE=Clifford Scott - Texas Tenor
DYEAR=1992
DGENRE=Blues - R&B
TTITLE0=Scott to Trot (Pt. 1)
TTITLE1=When the Sun Goes Down
TTITLE2=Ouchy Ouchy
TTITLE3=Nobody's Fault But Mine
TTITLE4=Hold It
TTITLE5=I Almost Lost My Mind
TTITLE6=Hello Josephine
TTITLE7=Refried Ram-Bunk-Shus
TTITLE8=Right Out of the Blue
TTITLE9=God Bless the Child
EXTD=
EXTT0=
EXTT1=
EXTT2=
EXTT3=
EXTT4=
EXTT5=
EXTT6=
EXTT7=
EXTT8=
EXTT9=
PLAYORDER=
